<svg width="72" height="68" viewBox="0 0 72 68" fill="none" xmlns="http://www.w3.org/2000/svg">
<g filter="url(#filter0_d_1_148)">
<path d="M62 32H52V24C52 19.5875 55.5875 16 60 16H61C62.6625 16 64 14.6625 64 13V7C64 5.3375 62.6625 4 61 4H60C48.95 4 40 12.95 40 24V54C40 57.3125 42.6875 60 46 60H62C65.3125 60 68 57.3125 68 54V38C68 34.6875 65.3125 32 62 32ZM26 32H16V24C16 19.5875 19.5875 16 24 16H25C26.6625 16 28 14.6625 28 13V7C28 5.3375 26.6625 4 25 4H24C12.95 4 4 12.95 4 24V54C4 57.3125 6.6875 60 10 60H26C29.3125 60 32 57.3125 32 54V38C32 34.6875 29.3125 32 26 32Z" fill="black"/>
</g>
<defs>
<filter id="filter0_d_1_148" x="0" y="0" width="72" height="72" filterUnits="userSpaceOnUse" color-interpolation-filters="sRGB">
<feFlood flood-opacity="0" result="BackgroundImageFix"/>
<feColorMatrix in="SourceAlpha" type="matrix" values="0 0 0 0 0 0 0 0 0 0 0 0 0 0 0 0 0 0 127 0" result="hardAlpha"/>
<feOffset dy="4"/>
<feGaussianBlur stdDeviation="2"/>
<feComposite in2="hardAlpha" operator="out"/>
<feColorMatrix type="matrix" values="0 0 0 0 0 0 0 0 0 0 0 0 0 0 0 0 0 0 0.25 0"/>
<feBlend mode="normal" in2="BackgroundImageFix" result="effect1_dropShadow_1_148"/>
<feBlend mode="normal" in="SourceGraphic" in2="effect1_dropShadow_1_148" result="shape"/>
</filter>
</defs>
</svg>
