<?xml version="1.0" standalone="no"?>
<!DOCTYPE svg PUBLIC "-//W3C//DTD SVG 20010904//EN"
 "http://www.w3.org/TR/2001/REC-SVG-20010904/DTD/svg10.dtd">
<svg version="1.0" xmlns="http://www.w3.org/2000/svg"
 width="260.000000pt" height="260.000000pt" viewBox="0 0 260.000000 260.000000"
 preserveAspectRatio="xMidYMid meet">
<metadata>
Created by potrace 1.14, written by Peter Selinger 2001-2017
</metadata>
<g transform="translate(0.000000,260.000000) scale(0.100000,-0.100000)"
fill="#000000" stroke="none">
<path d="M37 2573 c-4 -3 -7 -15 -7 -26 0 -13 -5 -17 -15 -13 -13 5 -15 -123
-15 -1115 0 -649 4 -1118 9 -1115 5 3 14 -1 21 -9 7 -8 18 -15 24 -15 17 0 72
-47 64 -55 -3 -4 -15 2 -25 12 -15 15 -42 31 -85 50 -3 2 -6 -62 -7 -142 l0
-145 49 0 c41 0 50 3 50 18 1 16 1 16 11 0 9 -17 80 -18 1249 -18 l1240 0 0
929 0 928 -25 -5 c-15 -2 -25 0 -25 7 0 6 11 11 25 11 l25 0 0 255 0 255 -72
0 c-40 0 -109 -6 -153 -14 -51 -9 -175 -14 -345 -15 -146 -2 -285 -6 -310 -10
l-45 -7 38 -7 c67 -14 39 -26 -57 -24 -65 1 -99 -2 -107 -10 -7 -7 -30 -13
-50 -13 -21 0 -45 -7 -53 -16 -14 -14 -14 -19 8 -57 14 -23 35 -61 47 -85 11
-24 32 -50 44 -58 14 -9 21 -22 18 -33 -3 -11 4 -21 21 -29 14 -6 26 -16 26
-22 0 -14 51 -59 66 -60 8 0 10 15 7 45 l-5 44 42 -2 c34 -1 45 -6 53 -24 6
-13 14 -23 19 -23 16 0 8 -57 -10 -73 -24 -22 -34 -21 -66 4 l-26 20 0 -24 c0
-13 -3 -27 -6 -30 -11 -10 -13 -67 -3 -73 5 -3 6 -16 3 -30 -3 -13 -2 -24 4
-24 10 0 22 -53 24 -103 1 -20 4 -25 11 -18 6 6 16 11 22 11 14 0 16 -60 3
-77 -11 -14 1 -40 31 -67 26 -24 29 -2 5 32 -19 27 -19 28 23 37 26 5 32 4 28
-8 -3 -7 1 -20 10 -27 8 -7 15 -23 15 -37 0 -28 48 -96 61 -87 5 3 6 16 3 30
-5 20 -2 24 15 24 17 0 21 -6 21 -29 0 -16 -5 -42 -10 -57 -8 -19 -8 -30 0
-38 5 -5 10 -18 10 -28 0 -23 20 -24 21 0 1 9 2 22 4 27 1 6 3 15 4 20 2 15
31 -45 31 -65 0 -10 6 -20 13 -23 9 -3 9 -7 -2 -21 -16 -19 -9 -93 13 -137 17
-34 0 -67 -28 -56 -10 4 -19 1 -22 -8 -4 -10 -18 -13 -44 -11 -44 4 -60 12
-60 32 0 8 -11 24 -25 36 -28 25 -32 38 -10 38 8 0 15 8 15 19 0 10 -7 24 -15
31 -8 7 -15 21 -15 31 0 12 -7 19 -20 19 -17 0 -20 -7 -20 -40 0 -28 4 -40 14
-40 9 0 12 -7 9 -18 -2 -10 5 -26 16 -36 21 -19 30 -86 12 -86 -16 0 -59 58
-66 89 -3 16 -15 37 -25 46 -10 9 -22 30 -25 46 -7 32 -17 36 -35 14 -16 -19
-34 -19 -26 0 8 21 -4 75 -17 75 -5 0 -7 -14 -4 -35 5 -32 4 -34 -13 -25 -15
8 -18 17 -13 40 4 24 2 30 -12 30 -9 0 -15 6 -12 13 2 6 14 11 26 9 19 -3 22
0 16 17 -4 14 -2 21 6 21 8 0 6 6 -4 18 -20 22 -23 62 -4 62 31 0 57 -14 57
-30 0 -10 7 -23 15 -30 8 -7 15 -23 15 -36 0 -28 14 -38 28 -21 15 17 -19 119
-44 132 -12 6 -20 23 -22 45 -1 19 -11 46 -21 60 -10 14 -21 35 -25 48 -4 12
-14 22 -22 22 -8 0 -14 7 -14 16 0 9 -7 14 -17 12 -22 -4 -29 -28 -9 -28 22 0
20 -13 -4 -35 -18 -16 -20 -16 -20 -2 0 10 -4 17 -9 17 -5 0 -13 10 -17 23
-21 67 -48 109 -83 124 -56 26 -57 26 -43 12 6 -7 12 -27 12 -44 0 -17 4 -35
8 -40 5 -6 21 -41 37 -80 15 -38 36 -77 46 -87 11 -9 19 -21 19 -27 0 -17 51
-115 61 -119 21 -8 6 -20 -30 -26 -49 -8 -65 -2 -80 30 -18 41 -12 51 10 17
12 -18 25 -33 31 -33 5 0 0 15 -11 34 -12 18 -21 43 -21 54 0 11 -5 24 -11 28
-6 3 -9 15 -6 25 3 10 1 22 -4 25 -10 6 -83 153 -84 169 0 5 -9 11 -20 13 -11
2 -26 9 -33 14 -9 8 -11 7 -6 -6 3 -9 2 -22 -4 -29 -7 -8 -6 -18 4 -31 12 -17
9 -23 -29 -63 -40 -42 -42 -42 -49 -21 -3 13 -6 40 -7 60 -2 74 -28 92 -49 34
-18 -50 -42 -50 -69 -1 -14 26 -18 44 -12 52 7 7 6 14 -1 18 -5 3 -10 21 -10
40 0 20 -6 35 -15 39 -8 3 -15 16 -15 28 l0 23 18 -23 c18 -24 32 -21 32 8 0
28 24 70 40 70 8 -1 26 -7 40 -15 21 -12 23 -14 8 -20 -27 -11 41 -66 71 -58
35 9 26 41 -65 212 -24 47 -44 90 -44 95 0 19 -48 71 -57 63 -4 -5 0 -14 10
-21 9 -7 17 -18 17 -25 0 -16 -27 -13 -34 4 -7 19 -40 19 -56 0 -8 -9 -22 -12
-41 -8 -16 3 -35 1 -41 -4 -7 -6 -31 -13 -53 -16 -22 -4 -35 -3 -29 1 6 4 14
19 17 34 6 22 3 28 -14 33 -14 5 -25 2 -30 -6 -5 -8 -23 -14 -40 -14 -33 0
-55 -25 -22 -25 10 -1 29 -10 42 -21 23 -19 23 -20 5 -41 -14 -15 -16 -22 -6
-25 7 -3 19 -11 27 -19 9 -9 23 -12 40 -8 30 8 32 -5 4 -37 -17 -19 -22 -21
-29 -9 -6 8 -10 21 -10 28 0 24 -21 11 -36 -23 -23 -55 -41 -40 -36 28 3 29
-28 33 -49 6 l-19 -24 0 53 c0 28 -4 52 -10 52 -5 0 -10 -7 -10 -15 0 -8 -4
-15 -10 -15 -5 0 -10 12 -10 28 0 36 -13 54 -33 46 -13 -5 -17 0 -17 20 0 16
-6 26 -14 26 -8 0 -16 5 -18 11 -2 7 -16 13 -31 15 -30 3 -46 -18 -50 -65 -2
-31 -22 -32 -30 0 -4 13 -10 17 -22 13 -13 -5 -16 -2 -14 11 2 9 21 23 41 30
43 14 77 50 78 81 0 11 -11 31 -25 44 -21 20 -38 24 -117 28 -51 2 -98 9 -105
14 -7 5 -17 7 -23 3 -6 -4 -21 2 -33 13 -12 12 -44 24 -72 29 -54 9 -54 10
-56 93 -1 36 -27 61 -55 54 -18 -5 -24 -2 -24 10 0 16 -21 22 -33 9z m63 -84
c0 -10 -4 -19 -9 -19 -12 0 -23 29 -15 41 8 14 24 0 24 -22z m20 -83 c-28 -13
-38 1 -14 18 14 11 21 11 26 3 4 -7 -1 -16 -12 -21z m1730 -80 c0 -11 -19 -15
-25 -6 -3 5 1 10 9 10 9 0 16 -2 16 -4z m-754 -290 c-1 -11 -56 -17 -56 -7 0
4 7 17 16 29 15 22 17 23 29 5 7 -10 12 -22 11 -27z m-134 -128 c-9 -9 -12 -7
-12 12 0 19 3 21 12 12 9 -9 9 -15 0 -24z m48 -37 c0 -17 -4 -33 -10 -36 -5
-3 -9 9 -8 30 2 42 18 48 18 6z m50 -16 c0 -8 -4 -15 -10 -15 -5 0 -10 7 -10
15 0 8 5 15 10 15 6 0 10 -7 10 -15z m868 -228 c2 -12 -1 -15 -12 -11 -19 7
-22 38 -3 32 6 -3 13 -12 15 -21z m-1538 -57 c0 -14 -26 -25 -107 -45 -76 -20
-98 -16 -70 12 24 24 177 53 177 33z m1586 -6 c-4 -9 -1 -23 5 -31 9 -10 9
-17 1 -25 -17 -17 -41 8 -40 43 1 22 6 29 21 29 14 0 17 -5 13 -16z m-549 -86
c27 -30 46 -68 35 -68 -5 0 -15 14 -22 30 -7 17 -20 30 -30 30 -18 0 -30 28
-29 65 1 16 3 15 13 -7 6 -15 21 -37 33 -50z m173 56 c0 -9 -5 -14 -12 -12
-18 6 -21 28 -4 28 9 0 16 -7 16 -16z m449 -16 c12 -32 2 -44 -16 -19 -8 12
-11 26 -8 31 9 15 15 12 24 -12z m-444 -18 c4 -6 10 -8 15 -5 5 3 14 -4 21
-16 9 -18 8 -25 -10 -42 -11 -12 -24 -17 -28 -13 -4 5 -2 11 5 13 19 7 14 34
-5 31 -12 -2 -19 4 -21 20 -3 22 12 30 23 12z m445 -56 c0 -11 6 -14 21 -9 18
6 20 4 14 -14 -4 -12 -2 -28 4 -34 12 -16 -3 -42 -19 -32 -6 4 -9 13 -6 21 3
8 -1 14 -8 14 -8 0 -16 10 -20 23 -8 32 -7 47 4 47 6 0 10 -7 10 -16z m81 -93
c-7 -11 -17 -21 -24 -20 -9 0 -9 2 0 5 8 4 10 17 6 37 -5 30 -4 31 12 16 14
-14 15 -21 6 -38z m29 -72 c0 -27 -18 -32 -30 -8 -16 29 -5 56 15 39 8 -7 15
-21 15 -31z m-71 -295 c-14 -18 -24 -11 -15 11 3 9 11 13 16 10 8 -5 7 -11 -1
-21z m104 -44 c-3 -11 -9 -20 -14 -20 -10 0 -12 24 -2 33 13 13 21 7 16 -13z
m47 -59 c0 -6 -4 -13 -10 -16 -5 -3 -10 1 -10 9 0 9 5 16 10 16 6 0 10 -4 10
-9z m-320 -11 c0 -5 -4 -10 -10 -10 -5 0 -10 5 -10 10 0 6 5 10 10 10 6 0 10
-4 10 -10z m80 -105 c-7 -9 -15 -13 -18 -10 -3 2 1 11 8 20 7 9 15 13 18 10 3
-2 -1 -11 -8 -20z m326 -14 c-10 -16 -36 -13 -36 3 0 17 21 27 34 16 4 -5 5
-13 2 -19z m-661 -391 c3 -5 2 -10 -4 -10 -5 0 -13 5 -16 10 -3 6 -2 10 4 10
5 0 13 -4 16 -10z m-1420 -75 c30 -13 30 -13 4 -14 -14 -1 -34 6 -45 14 -25
19 -1 19 41 0z m469 -26 c6 -5 -6 -8 -32 -6 -41 2 -49 7 -35 21 9 8 54 -1 67
-15z m-459 -29 c3 -5 1 -10 -4 -10 -6 0 -11 5 -11 10 0 6 2 10 4 10 3 0 8 -4
11 -10z m164 -4 c14 -17 0 -29 -23 -20 -17 7 -20 16 -9 27 10 11 19 8 32 -7z
m-334 -44 c-7 -7 -45 29 -45 41 0 6 11 0 25 -13 14 -13 23 -26 20 -28z m795
34 c0 -19 -23 -33 -28 -18 -2 7 -10 12 -18 12 -8 0 -14 5 -14 10 0 6 14 10 30
10 19 0 30 -5 30 -14z m-780 -76 c0 -5 -5 -10 -11 -10 -5 0 -7 5 -4 10 3 6 8
10 11 10 2 0 4 -4 4 -10z m1055 0 c3 -5 1 -10 -4 -10 -6 0 -11 5 -11 10 0 6 2
10 4 10 3 0 8 -4 11 -10z m-1105 -10 c0 -5 -4 -10 -10 -10 -5 0 -10 5 -10 10
0 6 5 10 10 10 6 0 10 -4 10 -10z m75 -20 c3 -5 1 -10 -4 -10 -6 0 -11 5 -11
10 0 6 2 10 4 10 3 0 8 -4 11 -10z m-75 -15 c0 -8 6 -15 14 -15 8 0 17 -7 20
-16 13 -33 5 -33 -29 -3 -38 35 -44 49 -20 49 8 0 15 -7 15 -15z m1340 -9 c0
-3 -4 -8 -10 -11 -5 -3 -10 -1 -10 4 0 6 5 11 10 11 6 0 10 -2 10 -4z m-1190
-16 c0 -5 -2 -10 -4 -10 -3 0 -8 5 -11 10 -3 6 -1 10 4 10 6 0 11 -4 11 -10z"/>
<path d="M306 2530 c-13 -27 -13 -36 -1 -71 8 -21 12 -46 9 -53 -3 -8 -1 -17
5 -20 6 -4 13 5 16 21 4 15 8 37 10 47 6 27 -6 106 -16 106 -4 0 -14 -14 -23
-30z"/>
<path d="M760 2329 c-25 -4 -75 -8 -112 -8 -38 -1 -68 -3 -68 -6 0 -13 54 -64
62 -59 12 8 39 -16 32 -28 -3 -5 -12 -4 -20 3 -8 6 -17 9 -21 6 -3 -4 2 -9 11
-13 9 -3 16 -10 16 -15 0 -6 9 -19 20 -31 11 -12 20 -28 20 -35 0 -7 4 -13 10
-13 5 0 9 8 8 18 -4 50 1 58 37 58 19 0 35 -4 35 -8 0 -4 7 -8 16 -8 11 0 14
5 10 16 -5 12 -2 15 11 9 30 -11 93 -15 93 -5 0 6 -6 10 -14 10 -24 0 -30 22
-11 37 11 7 33 13 50 13 41 0 47 8 26 29 -35 35 -120 47 -211 30z m150 -29 c0
-5 -2 -10 -4 -10 -3 0 -8 5 -11 10 -3 6 -1 10 4 10 6 0 11 -4 11 -10z"/>
<path d="M1058 2310 c10 -12 18 -16 21 -9 2 6 -3 15 -10 20 -24 15 -29 10 -11
-11z"/>
<path d="M990 2310 c0 -5 7 -10 15 -10 8 0 15 5 15 10 0 6 -7 10 -15 10 -8 0
-15 -4 -15 -10z"/>
<path d="M1125 2310 c3 -5 10 -10 16 -10 5 0 9 5 9 10 0 6 -7 10 -16 10 -8 0
-12 -4 -9 -10z"/>
<path d="M910 2250 c0 -5 4 -10 9 -10 6 0 13 5 16 10 3 6 -1 10 -9 10 -9 0
-16 -4 -16 -10z"/>
<path d="M1350 2250 c0 -16 60 -129 96 -181 18 -26 34 -57 36 -70 2 -18 9 -24
27 -24 30 0 40 22 14 32 -28 11 -40 26 -48 62 -4 17 -21 54 -38 81 -18 27 -40
62 -49 79 -17 30 -38 42 -38 21z"/>
<path d="M964 2225 c24 -18 49 -20 44 -2 -3 6 -18 13 -34 15 -28 2 -28 2 -10
-13z"/>
<path d="M1160 2230 c0 -5 5 -10 10 -10 6 0 10 5 10 10 0 6 -4 10 -10 10 -5 0
-10 -4 -10 -10z"/>
<path d="M1110 2204 c0 -8 5 -12 10 -9 6 3 10 10 10 16 0 5 -4 9 -10 9 -5 0
-10 -7 -10 -16z"/>
<path d="M1270 2196 c0 -8 11 -28 25 -43 19 -22 24 -24 25 -11 0 27 -22 68
-37 68 -7 0 -13 -6 -13 -14z"/>
<path d="M1045 2190 c-3 -5 1 -10 9 -10 9 0 16 5 16 10 0 6 -4 10 -9 10 -6 0
-13 -4 -16 -10z"/>
<path d="M1195 2171 c0 -16 7 -37 16 -47 9 -11 19 -35 23 -55 4 -21 13 -42 20
-48 7 -6 21 -33 31 -59 23 -60 65 -123 77 -116 5 3 7 29 5 57 -3 40 -11 59
-32 80 -16 17 -28 41 -30 60 -2 20 -8 32 -17 32 -27 1 -61 42 -56 69 3 14 1
26 -5 26 -5 0 -15 7 -21 15 -9 13 -11 10 -11 -14z"/>
<path d="M730 2156 c0 -9 7 -16 16 -16 17 0 14 22 -4 28 -7 2 -12 -3 -12 -12z"/>
<path d="M935 2150 c-10 -11 -15 -20 -11 -20 11 0 39 30 34 36 -3 2 -13 -5
-23 -16z"/>
<path d="M1335 2090 c-3 -5 1 -10 9 -10 9 0 16 5 16 10 0 6 -4 10 -9 10 -6 0
-13 -4 -16 -10z"/>
<path d="M1377 2023 c-11 -18 7 -63 30 -79 21 -13 27 -14 34 -3 13 21 11 26
-10 32 -11 2 -21 15 -23 28 -3 23 -22 37 -31 22z"/>
<path d="M1520 1946 c0 -9 5 -16 10 -16 6 0 10 4 10 9 0 6 -4 13 -10 16 -5 3
-10 -1 -10 -9z"/>
<path d="M1140 1861 c0 -6 5 -13 10 -16 6 -3 10 1 10 9 0 9 -4 16 -10 16 -5 0
-10 -4 -10 -9z"/>
<path d="M1165 1820 c-3 -5 -1 -10 4 -10 6 0 11 5 11 10 0 6 -2 10 -4 10 -3 0
-8 -4 -11 -10z"/>
<path d="M1600 1786 c0 -7 7 -19 15 -26 8 -7 15 -19 15 -26 0 -8 5 -14 10 -14
6 0 10 11 10 25 0 14 -4 25 -10 25 -5 0 -10 7 -10 15 0 8 -7 15 -15 15 -8 0
-15 -6 -15 -14z"/>
<path d="M1520 1735 c0 -26 29 -75 45 -75 20 0 29 19 11 26 -8 3 -18 19 -21
35 -7 30 -35 41 -35 14z"/>
<path d="M1270 1621 c0 -26 17 -36 36 -21 11 10 12 16 3 26 -17 20 -39 17 -39
-5z"/>
<path d="M1781 1274 c0 -11 3 -14 6 -6 3 7 2 16 -1 19 -3 4 -6 -2 -5 -13z"/>
</g>
</svg>
